<svg id="Layer_3" enable-background="new 0 0 64 64" height="512" viewBox="0 0 64 64" width="512" xmlns="http://www.w3.org/2000/svg"><path d="m44 31h-40c-1.654 0-3 1.346-3 3 0 1.302.839 2.402 2 2.816v5.184c0 3.519 2.614 6.432 6 6.92v13.08c0 .553.447 1 1 1h4c.553 0 1-.447 1-1v-3h18v3c0 .553.447 1 1 1h4c.553 0 1-.447 1-1v-13.08c3.386-.488 6-3.401 6-6.92v-5.184c1.161-.414 2-1.514 2-2.816 0-1.654-1.346-3-3-3zm-33 30v-12h2v12zm4-12h18v4h-18zm12-2h-2v-2h2zm-4 0h-2v-2h2zm10 0h-4v-3c0-.553-.447-1-1-1h-8c-.553 0-1 .447-1 1v3h-4v-6h18zm-18 10v-2h18v2zm20 4v-12h2v12zm3-14h-3v-7c0-.553-.447-1-1-1h-20c-.553 0-1 .447-1 1v7h-3c-2.757 0-5-2.243-5-5v-5h38v5c0 2.757-2.243 5-5 5zm6-12h-40c-.552 0-1-.448-1-1s.448-1 1-1h40c.552 0 1 .448 1 1s-.448 1-1 1z"/><path d="m42 17c-2.415 0-4.435 1.721-4.899 4h-4.191c-.478-2.833-2.942-5-5.91-5-.553 0-1 .448-1 1v4h-4.148c-.045-.168-.085-.337-.153-.5.199-.48.301-.983.301-1.5 0-2.206-1.794-4-4-4s-4 1.794-4 4c0 .517.102 1.02.302 1.5-.068.163-.108.332-.153.5h-4.149v-4c0-.375-.209-.718-.542-.889-.335-.172-.734-.142-1.039.075l-7 5c-.263.188-.419.491-.419.814s.156.626.419.814l7 5c.173.123.376.186.581.186.156 0 .313-.037.458-.111.333-.171.542-.514.542-.889v-4h4.148c.045.168.085.337.153.5-.199.48-.301.983-.301 1.5 0 2.206 1.794 4 4 4s4-1.794 4-4c0-.517-.102-1.02-.302-1.5.068-.163.108-.332.153-.5h4.149v4c0 .552.447 1 1 1 2.967 0 5.431-2.167 5.91-5h5.09c.553 0 1-.448 1-1 0-1.654 1.346-3 3-3s3 1.346 3 3-1.346 3-3 3v2c2.757 0 5-2.243 5-5s-2.243-5-5-5zm-34 8.057-4.279-3.057 4.279-3.057zm11.72-4.054c.185.32.28.655.28.997s-.095.677-.28.997c-.181.311-.181.695 0 1.006.185.32.28.655.28.997 0 1.103-.897 2-2 2s-2-.897-2-2c0-.342.095-.677.28-.997.181-.311.181-.695 0-1.006-.185-.32-.28-.655-.28-.997s.095-.677.28-.997c.181-.311.181-.695 0-1.006-.185-.32-.28-.655-.28-.997 0-1.103.897-2 2-2s2 .897 2 2c0 .342-.095.677-.28.997-.181.311-.181.695 0 1.006zm8.28 4.871v-7.747c1.724.445 3 2.013 3 3.874s-1.276 3.427-3 3.873z"/><path d="m63 10c0-3.309-2.691-6-6-6-.462 0-.919.054-1.368.163-.739-1.865-2.563-3.163-4.632-3.163-2.757 0-5 2.243-5 5h2c0-1.654 1.346-3 3-3 1.48 0 2.75 1.113 2.954 2.589.043.312.23.586.507.739s.609.166.896.036c.532-.242 1.085-.364 1.643-.364 2.206 0 4 1.794 4 4 0 1.05-.408 2.044-1.149 2.799-.382.389-.382 1.012 0 1.401.741.755 1.149 1.749 1.149 2.8 0 2.206-1.794 4-4 4v2c3.309 0 6-2.691 6-6 0-1.271-.396-2.485-1.13-3.5.734-1.016 1.13-2.23 1.13-3.5z"/><path d="m48.838 10h6.325v1.999h-6.325z" transform="matrix(.316 -.949 .949 .316 25.121 56.853)"/><path d="m52 15h6v2h-6z"/><path d="m16.586 8c.268.267.414.622.414 1s-.146.733-.414 1l-1.293 1.293 1.414 1.414 1.293-1.292c.645-.645 1-1.502 1-2.415s-.355-1.77-1-2.414l-.586-.586c-.268-.267-.414-.622-.414-1s.146-.733.414-1l1.293-1.293-1.414-1.414-1.293 1.292c-.645.645-1 1.502-1 2.415s.355 1.77 1 2.414z"/><path d="m23.586 8c.268.267.414.622.414 1s-.146.733-.414 1l-1.293 1.293 1.414 1.414 1.293-1.292c.645-.645 1-1.502 1-2.415s-.355-1.77-1-2.414l-.586-.586c-.268-.267-.414-.622-.414-1s.146-.733.414-1l1.293-1.293-1.414-1.414-1.293 1.292c-.645.645-1 1.502-1 2.415s.355 1.77 1 2.414z"/><path d="m30.586 8c.268.267.414.622.414 1s-.146.733-.414 1l-1.293 1.293 1.414 1.414 1.293-1.292c.645-.645 1-1.502 1-2.415s-.355-1.77-1-2.414l-.586-.586c-.268-.267-.414-.622-.414-1s.146-.733.414-1l1.293-1.293-1.414-1.414-1.293 1.292c-.645.645-1 1.502-1 2.415s.355 1.77 1 2.414z"/></svg>